<svg xmlns="http://www.w3.org/2000/svg" width="19.096" height="19" viewBox="0 0 19.096 19"><defs><style>.a{fill:#75798e;}</style></defs><g transform="translate(0 -0.261)"><path class="a" d="M17.531,49.14a.472.472,0,0,0-.473.471v4.179A1.417,1.417,0,0,1,15.639,55.2H2.365A1.417,1.417,0,0,1,.946,53.789V41.525a1.417,1.417,0,0,1,1.419-1.412h4.2a.471.471,0,1,0,0-.941h-4.2A2.362,2.362,0,0,0,0,41.525V53.789a2.362,2.362,0,0,0,2.365,2.353H15.639A2.362,2.362,0,0,0,18,53.789V49.611a.472.472,0,0,0-.473-.471Zm0,0" transform="translate(0 -36.882)"/><path class="a" d="M122.192.948a2.347,2.347,0,0,0-3.32,0l-9.306,9.306a.522.522,0,0,0-.134.23L108.209,14.9a.521.521,0,0,0,.642.642l4.418-1.224a.521.521,0,0,0,.23-.134L122.8,4.88a2.35,2.35,0,0,0,0-3.32ZM110.7,10.593l7.616-7.616,2.456,2.456-7.616,7.616Zm-.491.985,1.962,1.963-2.714.752Zm11.854-7.435-.553.553-2.456-2.456.553-.553a1.3,1.3,0,0,1,1.844,0l.612.612A1.306,1.306,0,0,1,122.067,4.142Zm0,0" transform="translate(-104.395)"/></g></svg>