<svg xmlns="http://www.w3.org/2000/svg" xmlns:xlink="http://www.w3.org/1999/xlink" width="38" height="38" viewBox="0 0 38 38"><defs><style>.a{fill:url(#a);}.b{fill:#fff;}</style><linearGradient id="a" x1="0.15" y1="0.836" x2="1.105" y2="-0.277" gradientUnits="objectBoundingBox"><stop offset="0" stop-color="#DB0E65"/><stop offset="1" stop-color="#d58428"/></linearGradient></defs><g transform="translate(-295.065 -1430.826)"><rect class="a" width="38" height="38" rx="19" transform="translate(295.065 1430.826)"/><path class="b" d="M358.986,1525.183a6.767,6.767,0,0,1-.449-2.486c0-.033,0-.066,0-.1a10.128,10.128,0,0,0-.557-3.787,5.871,5.871,0,0,0-2.316-2.739q-.137-.083-.279-.156a4.963,4.963,0,0,0-.681-.291,5.169,5.169,0,0,0-4.331.531c-1.582.948-2.354,2.8-3.3,4.385a11.639,11.639,0,0,1-3.86,4.14,5.053,5.053,0,0,1-.5.27,6.411,6.411,0,0,1-1.483.462,5.7,5.7,0,0,1-1.289.04,4.254,4.254,0,0,1-1-.3,3.94,3.94,0,0,1-2.15-3.122,4.427,4.427,0,0,1,.608-2.861,3.443,3.443,0,0,1,4.982-1.086,2.365,2.365,0,0,1,.408.342,7.634,7.634,0,0,1,.608.757c.054.1.116.1-.2.1H340.59a.916.916,0,0,0-.658.3,1.107,1.107,0,0,0-.273.729,1,1,0,0,0,.931,1.031h1.334c.308,0,.614-.012.921-.007q.554.008,1.108.008a1.771,1.771,0,0,0,1.381-.363c.78-.788.19-2.069-.313-2.828a6.281,6.281,0,0,0-2.628-2.287l-.034-.015a4.947,4.947,0,0,0-3.823-.079,6.148,6.148,0,0,0-3.588,6.143,6.5,6.5,0,0,0,.86,2.86,5.55,5.55,0,0,0,5.143,2.732c3.776-.277,6.4-3.472,8.226-6.827a6.488,6.488,0,0,1,2.031-2.721,3.655,3.655,0,0,1,3.145-.266,3.406,3.406,0,0,1,.976.61,4.484,4.484,0,0,1,.516,5.711,3.469,3.469,0,0,1-3.922,1.344,3.88,3.88,0,0,1-1.528-1.021c-.419-.427-.814-1.152-1.48-.9a1.07,1.07,0,0,0-.486,1.157,2.107,2.107,0,0,0,.638.992,5.944,5.944,0,0,0,1,.9,5.213,5.213,0,0,0,2.364.927,5.024,5.024,0,0,0,2.529-.354,4.079,4.079,0,0,0,2.146-1.685,6.827,6.827,0,0,0,.463,1.265c.29.563.417.771.726.887a.954.954,0,0,0,1.215-.734C359.617,1526.151,359.189,1525.734,358.986,1525.183Zm-15.505-6.068-.088-.126C343.427,1519.037,343.459,1519.08,343.481,1519.115Z" transform="translate(-33.166 -71.641)"/></g></svg>