<svg xmlns="http://www.w3.org/2000/svg" width="18" height="18" viewBox="0 0 18 18"><defs><style>.a{fill:#bcbdc7;}</style></defs><path class="a" d="M.643,39.714H17.357A.643.643,0,0,0,18,39.071V37.786a.643.643,0,0,0-.643-.643H.643A.643.643,0,0,0,0,37.786v1.286A.643.643,0,0,0,.643,39.714Zm16.714,7.714H.643A.643.643,0,0,0,0,48.071v1.286A.643.643,0,0,0,.643,50H17.357A.643.643,0,0,0,18,49.357V48.071A.643.643,0,0,0,17.357,47.429ZM17.485,32H6.944a.515.515,0,0,0-.515.515v1.54a.515.515,0,0,0,.515.515h10.54A.515.515,0,0,0,18,34.056v-1.54A.515.515,0,0,0,17.485,32Zm0,10.286H6.944a.515.515,0,0,0-.515.515v1.54a.515.515,0,0,0,.515.515h10.54A.515.515,0,0,0,18,44.342V42.8a.515.515,0,0,0-.515-.515Z" transform="translate(0 -32)"/></svg>