<svg xmlns="http://www.w3.org/2000/svg" width="23.8" height="17" viewBox="0 0 23.8 17"><defs><style>.a{fill:#fff;}</style></defs><path class="a" d="M.682,49H14.618a.681.681,0,0,0,.682-.682V46.282a.681.681,0,0,0-.682-.682H.682A.681.681,0,0,0,0,46.282v2.037A.681.681,0,0,0,.682,49Zm0-13.6H14.618a.681.681,0,0,0,.682-.682V32.682A.681.681,0,0,0,14.618,32H.682A.681.681,0,0,0,0,32.682v2.037a.681.681,0,0,0,.682.682ZM22.95,38.8H.85a.85.85,0,0,0-.85.85v1.7a.85.85,0,0,0,.85.85h22.1a.85.85,0,0,0,.85-.85v-1.7A.85.85,0,0,0,22.95,38.8Z" transform="translate(0 -32)"/></svg>