<svg xmlns="http://www.w3.org/2000/svg" width="7.979" height="13.38" viewBox="0 0 7.979 13.38"><defs><style>.a{fill:#555;stroke:#f8f8f8;stroke-width:0.5px;}</style></defs><g transform="translate(0.251 0.251)"><path class="a" d="M14.552,20.333a1.151,1.151,0,0,1-.674-.211A.889.889,0,0,1,13.5,19.5a.842.842,0,0,1,.239-.672l4.715-4.92L13.91,8.979a.839.839,0,0,1-.23-.676.893.893,0,0,1,.387-.618,1.157,1.157,0,0,1,.8-.224,1.1,1.1,0,0,1,.734.362l5.083,5.507a.829.829,0,0,1,0,1.166L15.425,20A1.127,1.127,0,0,1,14.552,20.333Z" transform="translate(-13.497 -7.456)"/></g></svg>