<svg xmlns="http://www.w3.org/2000/svg" width="28" height="32" viewBox="0 0 28 32"><defs><style>.a{fill:#384364;}</style></defs><path class="a" d="M0,29a3,3,0,0,0,3,3H25a3,3,0,0,0,3-3V12H0ZM20,16.75a.752.752,0,0,1,.75-.75h2.5a.752.752,0,0,1,.75.75v2.5a.752.752,0,0,1-.75.75h-2.5a.752.752,0,0,1-.75-.75Zm0,8a.752.752,0,0,1,.75-.75h2.5a.752.752,0,0,1,.75.75v2.5a.752.752,0,0,1-.75.75h-2.5a.752.752,0,0,1-.75-.75Zm-8-8a.752.752,0,0,1,.75-.75h2.5a.752.752,0,0,1,.75.75v2.5a.752.752,0,0,1-.75.75h-2.5a.752.752,0,0,1-.75-.75Zm0,8a.752.752,0,0,1,.75-.75h2.5a.752.752,0,0,1,.75.75v2.5a.752.752,0,0,1-.75.75h-2.5a.752.752,0,0,1-.75-.75Zm-8-8A.752.752,0,0,1,4.75,16h2.5a.752.752,0,0,1,.75.75v2.5a.752.752,0,0,1-.75.75H4.75A.752.752,0,0,1,4,19.25Zm0,8A.752.752,0,0,1,4.75,24h2.5a.752.752,0,0,1,.75.75v2.5a.752.752,0,0,1-.75.75H4.75A.752.752,0,0,1,4,27.25ZM25,4H22V1a1,1,0,0,0-1-1H19a1,1,0,0,0-1,1V4H10V1A1,1,0,0,0,9,0H7A1,1,0,0,0,6,1V4H3A3,3,0,0,0,0,7v3H28V7A3,3,0,0,0,25,4Z"/></svg>