<svg xmlns="http://www.w3.org/2000/svg" width="23.338" height="23.338" viewBox="0 0 23.338 23.338"><defs><style>.a{fill:#fff;}</style></defs><path class="a" d="M11.669.563A11.669,11.669,0,1,0,23.338,12.232,11.667,11.667,0,0,0,11.669.563Zm0,4.517A4.141,4.141,0,1,1,7.528,9.22,4.141,4.141,0,0,1,11.669,5.08Zm0,16.186a9.017,9.017,0,0,1-6.893-3.209A5.246,5.246,0,0,1,9.41,15.243a1.151,1.151,0,0,1,.334.052,6.23,6.23,0,0,0,1.924.325,6.206,6.206,0,0,0,1.924-.325,1.151,1.151,0,0,1,.334-.052,5.246,5.246,0,0,1,4.635,2.814A9.017,9.017,0,0,1,11.669,21.266Z" transform="translate(0 -0.562)"/></svg>