<svg xmlns="http://www.w3.org/2000/svg" width="14.61" height="19.224" viewBox="0 0 14.61 19.224"><defs><style>.a{fill:#fff;}</style></defs><g transform="translate(-7.313 -3.938)"><path class="a" d="M21.515,8.7h4.373a.238.238,0,0,0,.24-.24h0a1.422,1.422,0,0,0-.514-1.1L21.947,4.3a1.544,1.544,0,0,0-.99-.356h0A.355.355,0,0,0,20.6,4.3V7.785A.913.913,0,0,0,21.515,8.7Z" transform="translate(-4.206 -0.002)"/><path class="a" d="M15.146,7.782V3.938H8.85A1.542,1.542,0,0,0,7.313,5.475V21.623A1.542,1.542,0,0,0,8.85,23.161H20.385a1.542,1.542,0,0,0,1.538-1.538V9.945H17.309A2.166,2.166,0,0,1,15.146,7.782Z"/></g></svg>