<svg xmlns="http://www.w3.org/2000/svg" width="15.427" height="14.356" viewBox="0 0 15.427 14.356"><defs><style>.a{opacity:0.998;}.b{fill:none;stroke:#555;stroke-linecap:round;stroke-linejoin:round;stroke-miterlimit:10;stroke-width:1.5px;}</style></defs><g class="a" transform="translate(0.75 0.75)"><path class="b" d="M8.57,10.713h-7.5A1.071,1.071,0,0,1,0,9.642V0H9.642V9.642A1.071,1.071,0,0,1,8.57,10.713Z" transform="translate(2.143 2.143)"/><path class="b" d="M.4,4.285V0" transform="translate(4.957 5.357)"/><path class="b" d="M.4,4.285V0" transform="translate(8.17 5.357)"/><path class="b" d="M0,.4H13.927" transform="translate(0 1.743)"/><path class="b" d="M4.285,0H1.071A1.071,1.071,0,0,0,0,1.071V2.143H5.357V1.071A1.071,1.071,0,0,0,4.285,0Z" transform="translate(4.285)"/></g></svg>