<svg xmlns="http://www.w3.org/2000/svg" width="108.362" height="79.002" viewBox="0 0 108.362 79.002"><defs><style>.a{stroke:#000;stroke-width:0.5px;}</style></defs><g transform="matrix(0.966, 0.259, -0.259, 0.966, 19.74, -6.65)"><path class="a" d="M17.791,35.665c2.267-4.524,12.137-20.1,8.152-30.764C21.845-6.068,8.366,8.646,4.9,22.071c-2.712,10.495,1.2,14.241,8.055,21.4,2.445-2.787,5.739-6.534,9.313-7.71,4.452-1.465,2.966,6.412,2.764,10.97.933.146.89-.075.167.851-2.154-.4,1.667-12.469-2.261-11.346-3.715,1.062-6.993,4.9-9.467,7.739,5.378,6.089,9.671,11.731,5.307,19.841-2.688,5-10.084,13.066-14.9,10.138-2.894-1.761-2.668-6.418-1.9-9.79,2.039-8.966,7.166-15.288,10.235-19.749.426-.619.524-.215-.895-1.738C7.245,38.3.944,32.965,3.925,22.267,6.189,14.144,10.812,6.161,17.467,1.585a5.734,5.734,0,0,1,8.521,2.082C32.287,14.686,18.552,36.227,17.791,35.665Zm-4.7,8.839C8.371,49.971.331,64,2.617,71.381c2.663,8.6,21.537-7.061,15.941-19.42A26.868,26.868,0,0,0,13.089,44.5Z" transform="translate(0.136 6.303)"/><path class="a" d="M17.994,15.031c-.671,2.935-2.11,11.941-7.494,19.789a8.746,8.746,0,0,1-4.51,3.6c-1.182.283-1.663-.54-2.062-1.7C2.7,37.991,2.122,38.811,1.365,38.351a1.313,1.313,0,0,1-.541-1.384,21.618,21.618,0,0,1,.589-3.083c.455.547.249.6-.014,4C2.771,37.42,3.329,36.2,4.137,35.25c.954.621.172,1.757.961,2.542a8.039,8.039,0,0,0,5.385-4.211A48.853,48.853,0,0,0,17.2,15.293c-2.244-.03-5.007.355-7.091-2.089-6.153-7.22,9.255-25.267,7.877.612,2.918-.726,5.73-2.335,6.665.81,2.405,8.087-8.259,19.823-9.21,34.783-1.013.2-1.229-1.831-1.1-2.757,2.477-17.481,9.088-20.893,9.293-32.522C21.764,14.068,23.366,13.778,17.994,15.031Zm-.62-1.047c.655-7.225-.863-16.67-5.219-11.32C7.916,7.871,8.192,16.15,17.374,13.984Z" transform="translate(64.646 1.511)"/><path class="a" d="M10.512,31.987c1.994-.567,3.3-2.087,4.659-3.608a26.114,26.114,0,0,0-1.63-5.7A76.214,76.214,0,0,1,5.447,25C2.722,25.5-.182,23.935.6,20.861c1.224-4.79,8.02-7.4,12.911.515l7.019-3.368c.7-2.682,3.539-13.66,5.4-17.4,1.63.481.889,2.157-3.688,15.882-.339,1.017-.478.879.541.388,12.848-6.193,12.149-6.168,12.476-5.354-1.151.656-12.041,6.1-13.209,6.683a1.607,1.607,0,0,0-.919,1.166c-5.11,21.868-3.574,19.243-4.207,21.263-.589-.01-.6-.413-.641-.872-.161-2.043-.666-8.618-.93-10.284-4,3.926-4.789,3.812-5.856,2.076-.295.3-.569.609-.875.877A1.018,1.018,0,0,1,7.014,31.2c1.073-2.193,2.165-4.566,3.669-2.487a2.368,2.368,0,0,1,.39,2.167L10.791,31c.089-.86-.05-2.044-.776-2.3-.853-.3-2.058,2.251-2.291,3.108.272.231-.024.452,1.718-1.684C10.421,30.29,10.11,31.277,10.512,31.987ZM24.3,8.21c-.982,2.521,0,.32.2-.745a3.89,3.89,0,0,1,.632-2.019C24.85,5.294,24.308,8.192,24.3,8.21ZM13.013,21.584c-3.119-5.91-8.648-5.482-10.891-1.7-.714,1.2-1.521,3.67.444,4.168C5.754,24.857,10.048,22.9,13.013,21.584ZM20.2,19.371c-.156-.2.55-.459-6.177,2.818l1.7,5.423A47.426,47.426,0,0,0,20.2,19.371Zm-1.062,4.344c-.421.425-3.039,4.76-3.075,4.819-.241.4-.15.618.576,6.359C16.777,35.958,16.436,37.131,19.142,23.715Z" transform="translate(41.378 10.928)"/><path class="a" d="M12.834,1.662a19.694,19.694,0,0,1,.6,2.121c.012-.018.737-1.319,1.123-1.14,1.087.5.67,1.1,1.106,4.093-1.033.316-.992-1.362-1.183-2.831l-.918,1.6c-.67-.058-.889-.467-.961-1.017-.3-2.3-.233-4.3-2.03-3.2-1.451.89-1.848,1.6-4.5,4.916-.052,3.531.532,1.951-1.951,13.8a8.06,8.06,0,0,1-.949,2.27C1.525,25.173-1.112,19.669,1.525,13.3,2.734,10.378,3.769,9,4.139,7.453c-.245-.161-.039-.2-1.028.441-1.044.681-2-.269-1.859-1.344C1.654,3.387,4.029,1.615,4.83,3.9a10.893,10.893,0,0,1,.31,2C5.766,5.98,10.872-3.142,12.834,1.662ZM4.918,8.54c-.131-.061-.183-.139-.343.133-2.467,4.193-4.628,8.9-2.822,13.68C3.185,22.464,4.726,10.028,4.918,8.54ZM2.458,6.854,4.531,5.428l-.39-1.89A4.631,4.631,0,0,0,2.458,6.854Z" transform="translate(29.634 38.955)"/><path class="a" d="M1.272,11.782c.006.311.015.771.026,1.349,4.761.021,9.235-6.675,8.9-11.582l-.888-.514.658-.8a1.105,1.105,0,0,1,.991,1.211,16.915,16.915,0,0,1-.163,3.7c-1.156,5.388-4.876,8.593-7.877,9.11-3.25.56-3.554-3.862-.773-6.9C3.118,6.3,4.025,7.181,4.1,8.27,4.225,9.914,3.072,10.413,1.272,11.782Zm.263-1.1c1.478-.746,2.137-1.915,1.739-3.008A6.588,6.588,0,0,0,1.535,10.683Z" transform="translate(87.439 25.854)"/><path class="a" d="M1.142.128.428,1.96C-.185,1.858-.046.766.541.051.627-.054.981.1,1.142.128Z" transform="translate(27.419 36.385)"/></g></svg>