<svg xmlns="http://www.w3.org/2000/svg" width="14.369" height="14.369" viewBox="0 0 14.369 14.369"><defs><style>.a{fill:#fff;}.b{fill:none;stroke:#555;stroke-width:1.5px;}.c,.d{stroke:none;}.d{fill:#555;}</style></defs><g transform="translate(0.685 -365.315)"><g class="a" transform="translate(-0.685 365.315)"><path class="c" d="M 7.1845703125 13.619140625 C 3.636540412902832 13.619140625 0.7500002980232239 10.73260021209717 0.7500002980232239 7.1845703125 C 0.7500002980232239 3.636540412902832 3.636540412902832 0.7500002980232239 7.1845703125 0.7500002980232239 C 10.73260021209717 0.7500002980232239 13.619140625 3.636540412902832 13.619140625 7.1845703125 C 13.619140625 10.73260021209717 10.73260021209717 13.619140625 7.1845703125 13.619140625 Z"/><path class="d" d="M 7.1845703125 1.5 C 4.050089836120605 1.5 1.5 4.050089836120605 1.5 7.1845703125 C 1.5 10.31904983520508 4.050089836120605 12.869140625 7.1845703125 12.869140625 C 10.31904983520508 12.869140625 12.869140625 10.31904983520508 12.869140625 7.1845703125 C 12.869140625 4.050089836120605 10.31904983520508 1.5 7.1845703125 1.5 M 7.1845703125 0 C 11.15250015258789 0 14.369140625 3.216640472412109 14.369140625 7.1845703125 C 14.369140625 11.15250015258789 11.15250015258789 14.369140625 7.1845703125 14.369140625 C 3.216640472412109 14.369140625 0 11.15250015258789 0 7.1845703125 C 0 3.216640472412109 3.216640472412109 0 7.1845703125 0 Z"/></g><line class="b" y2="5" transform="translate(6.5 371.5)"/><line class="b" y2="1.4" transform="translate(6.5 369.374)"/></g></svg>