<svg xmlns="http://www.w3.org/2000/svg" width="26" height="26" viewBox="0 0 26 26"><defs><style>.a{fill:#384364;}</style></defs><path class="a" d="M22.286,50.571c-.02,0-.039.006-.059.006l-2.275-3.791a3.583,3.583,0,0,0,0-3.573l2.275-3.791c.02,0,.039.006.059.006a3.714,3.714,0,1,0-3.2-5.571H6.913a3.7,3.7,0,1,0-5.056,5.056V51.086a3.7,3.7,0,1,0,5.056,5.057H19.086a3.708,3.708,0,1,0,3.2-5.571Zm-16.714.515V38.913a3.7,3.7,0,0,0,1.342-1.342H19.006l-2.232,3.72c-.02,0-.039-.006-.059-.006a3.714,3.714,0,1,0,0,7.429c.02,0,.039-.006.059-.006l2.232,3.72H6.913a3.7,3.7,0,0,0-1.342-1.342ZM15.786,45a.929.929,0,1,1,.929.929A.93.93,0,0,1,15.786,45Zm7.429-9.286a.929.929,0,1,1-.929-.929A.93.93,0,0,1,23.214,35.714Zm-19.5-.929a.929.929,0,1,1-.929.929A.93.93,0,0,1,3.714,34.786Zm-.929,19.5a.929.929,0,1,1,.929.929A.93.93,0,0,1,2.786,54.286Zm19.5.929a.929.929,0,1,1,.929-.929A.93.93,0,0,1,22.286,55.214Z" transform="translate(0 -32)"/></svg>