<svg xmlns="http://www.w3.org/2000/svg" xmlns:xlink="http://www.w3.org/1999/xlink" width="80.832" height="61.802" viewBox="0 0 80.832 61.802"><defs><style>.a,.c{fill:#db0e65;}.b{clip-path:url(#a);}.c{fill-rule:evenodd;}</style><clipPath id="a"><rect class="a" width="80.832" height="61.802"/></clipPath></defs><g transform="translate(0 0)"><g class="b" transform="translate(0 0)"><path class="c" d="M36.3,10.53c0-14.04-21.283-14.04-21.283,0,0,4.53,7.011,4.53,7.011,0,0-4.755,7.022-4.755,7.022,0,0,4.53,7.25,4.53,7.25,0" transform="translate(-0.618 0)"/><path class="c" d="M68.42,10.53c0-14.04-21.291-14.04-21.291,0,0,4.53,7.022,4.53,7.022,0,0-4.755,7.248-4.755,7.248,0,0,4.53,7.021,4.53,7.021,0" transform="translate(-1.94 0)"/><path class="c" d="M73.729,60.059C66.48,24.5,15.526,23.6,7.146,58.928,6.015,63.458-1.008,61.87.123,57.34c10.19-42.8,71.789-41.671,80.622,1.131a3.6,3.6,0,1,1-7.015,1.588" transform="translate(0 -1.062)"/></g></g></svg>