<svg xmlns="http://www.w3.org/2000/svg" width="13.559" height="12.63" viewBox="0 0 13.559 12.63"><defs><style>.a{fill:#555;stroke:#707070;stroke-width:0.2px;}</style></defs><g transform="translate(0.1 0.1)"><path class="a" d="M4.888,8.266H8.266V4.888h4.612v3.72h.888V4.888A.888.888,0,0,0,12.878,4H7.05L4,7.05v8.492a.888.888,0,0,0,.888.888h7.99a.888.888,0,0,0,.888-.888H4.888Zm0-.852L7.414,4.888h.138V7.551H4.888Z" transform="translate(-4 -4)"/><path class="a" d="M22.025,16.216a.444.444,0,0,0-.626.626l1.443,1.438h-5.4a.444.444,0,1,0,0,.888h5.411L21.4,20.624a.444.444,0,1,0,.626.626l2.521-2.526Z" transform="translate(-11.229 -10.733)"/></g></svg>