<svg xmlns="http://www.w3.org/2000/svg" width="10.118" height="10.12" viewBox="0 0 10.118 10.12"><defs><style>.a{fill:#fff;}</style></defs><path class="a" d="M6.865,11.1C6.57,9.279,5.872,8,5.06,8S3.55,9.279,3.254,11.1ZM3.1,13.06a12.788,12.788,0,0,0,.067,1.306H6.949a12.788,12.788,0,0,0,.067-1.306,12.788,12.788,0,0,0-.067-1.306H3.168A12.788,12.788,0,0,0,3.1,13.06ZM9.726,11.1A5.07,5.07,0,0,0,6.5,8.212,6.886,6.886,0,0,1,7.522,11.1ZM3.615,8.212A5.067,5.067,0,0,0,.394,11.1H2.6A6.858,6.858,0,0,1,3.615,8.212Zm6.329,3.542H7.6c.043.428.067.867.067,1.306s-.024.877-.067,1.306H9.942a5.016,5.016,0,0,0,.175-1.306A5.1,5.1,0,0,0,9.944,11.754Zm-7.5,1.306c0-.439.024-.877.067-1.306H.175a4.946,4.946,0,0,0,0,2.611H2.514C2.473,13.937,2.448,13.5,2.448,13.06Zm.806,1.959c.3,1.822.994,3.1,1.806,3.1s1.51-1.279,1.806-3.1ZM6.5,17.907a5.075,5.075,0,0,0,3.224-2.889h-2.2A6.886,6.886,0,0,1,6.5,17.907ZM.394,15.018a5.07,5.07,0,0,0,3.224,2.889A6.886,6.886,0,0,1,2.6,15.018H.394Z" transform="translate(0 -8)"/></svg>