<svg xmlns="http://www.w3.org/2000/svg" xmlns:xlink="http://www.w3.org/1999/xlink" width="9.085" height="9.087" viewBox="0 0 9.085 9.087"><defs><style>.a{fill:url(#a);}</style><linearGradient id="a" x1="0.5" x2="0.5" y2="1" gradientUnits="objectBoundingBox"><stop offset="0" stop-color="#DB0E65"/><stop offset="0.013" stop-color="#815f00"/><stop offset="1" stop-color="#7c5b00"/></linearGradient></defs><path class="a" d="M6.165,10.785C5.9,9.149,5.272,8,4.543,8S3.188,9.149,2.922,10.785Zm-3.38,1.759a11.483,11.483,0,0,0,.06,1.172H6.24a11.483,11.483,0,0,0,.06-1.172,11.483,11.483,0,0,0-.06-1.172H2.845A11.483,11.483,0,0,0,2.785,12.543Zm5.948-1.759A4.553,4.553,0,0,0,5.839,8.191a6.183,6.183,0,0,1,.916,2.594ZM3.246,8.191A4.55,4.55,0,0,0,.354,10.785H2.332a6.158,6.158,0,0,1,.914-2.594Zm5.683,3.18h-2.1c.038.385.06.779.06,1.172s-.022.788-.06,1.172h2.1a4.5,4.5,0,0,0,.158-1.172A4.583,4.583,0,0,0,8.929,11.371ZM2.2,12.543c0-.394.022-.788.06-1.172H.158a4.441,4.441,0,0,0,0,2.345h2.1C2.22,13.331,2.2,12.937,2.2,12.543ZM2.922,14.3c.266,1.636.892,2.785,1.621,2.785S5.9,15.938,6.165,14.3ZM5.84,16.9A4.557,4.557,0,0,0,8.735,14.3H6.756A6.183,6.183,0,0,1,5.84,16.9ZM.354,14.3A4.553,4.553,0,0,0,3.248,16.9,6.183,6.183,0,0,1,2.332,14.3H.354Z" transform="translate(0 -8)"/></svg>