<svg xmlns="http://www.w3.org/2000/svg" width="23.85" height="22" viewBox="0 0 23.85 22"><defs><style>.a{fill:#384364;}</style></defs><path class="a" d="M21.614,86H2.236A2.533,2.533,0,0,1,0,83.25V66.75A2.533,2.533,0,0,1,2.236,64H21.614a2.533,2.533,0,0,1,2.236,2.75v16.5A2.533,2.533,0,0,1,21.614,86ZM5.217,67.208a3.277,3.277,0,0,0,0,6.417,3.277,3.277,0,0,0,0-6.417ZM2.981,82.333H20.869V75.917L16.792,70.9a.489.489,0,0,0-.791,0L9.689,78.667,7.1,75.486a.489.489,0,0,0-.791,0l-3.331,4.1Z" transform="translate(0 -64)"/></svg>