<svg xmlns="http://www.w3.org/2000/svg" width="47.839" height="47.839" viewBox="0 0 47.839 47.839"><defs><style>.a{fill:#c40163;}.b{fill:#fff;}</style></defs><rect class="a" width="47.839" height="47.839" rx="23.919"/><path class="b" d="M365.214,1527.725a8.52,8.52,0,0,1-.565-3.13c0-.042,0-.084,0-.125a12.751,12.751,0,0,0-.7-4.768,7.391,7.391,0,0,0-2.916-3.448q-.173-.1-.351-.2a6.266,6.266,0,0,0-.857-.367,6.508,6.508,0,0,0-5.453.668c-1.992,1.193-2.963,3.52-4.16,5.52a14.653,14.653,0,0,1-4.859,5.212,6.336,6.336,0,0,1-.632.34,8.073,8.073,0,0,1-1.867.582,7.17,7.17,0,0,1-1.622.05,5.359,5.359,0,0,1-1.257-.381,4.96,4.96,0,0,1-2.706-3.93,5.574,5.574,0,0,1,.765-3.6,4.334,4.334,0,0,1,6.272-1.367,2.971,2.971,0,0,1,.514.431,9.6,9.6,0,0,1,.766.953c.068.121.146.122-.247.122h-3.281a1.154,1.154,0,0,0-.829.38,1.394,1.394,0,0,0-.343.917,1.261,1.261,0,0,0,1.172,1.3h1.68c.387,0,.773-.015,1.16-.009q.7.01,1.395.009a2.23,2.23,0,0,0,1.739-.457c.983-.992.239-2.6-.394-3.56a7.907,7.907,0,0,0-3.309-2.88l-.043-.019a6.228,6.228,0,0,0-4.813-.1,7.74,7.74,0,0,0-4.516,7.734,8.187,8.187,0,0,0,1.082,3.6,6.987,6.987,0,0,0,6.475,3.44c4.753-.348,8.054-4.371,10.355-8.594.663-1.216,1.305-2.69,2.557-3.426a4.6,4.6,0,0,1,3.959-.334,4.288,4.288,0,0,1,1.229.768,5.645,5.645,0,0,1,.65,7.19,4.367,4.367,0,0,1-4.937,1.693,4.886,4.886,0,0,1-1.923-1.285c-.528-.538-1.025-1.45-1.863-1.13a1.347,1.347,0,0,0-.612,1.457,2.652,2.652,0,0,0,.8,1.249,7.483,7.483,0,0,0,1.263,1.131,6.561,6.561,0,0,0,2.976,1.166,6.322,6.322,0,0,0,3.184-.446,5.135,5.135,0,0,0,2.7-2.121,8.594,8.594,0,0,0,.582,1.593c.365.709.525.971.914,1.117a1.2,1.2,0,0,0,1.529-.924C366.007,1528.944,365.469,1528.419,365.214,1527.725Zm-19.52-7.639-.111-.159C345.626,1519.988,345.666,1520.041,345.694,1520.086Z" transform="translate(-326.496 -1499.127)"/></svg>