<svg xmlns="http://www.w3.org/2000/svg" width="126.108" height="47.92" viewBox="0 0 126.108 47.92"><defs><style>.a{fill:none;}.b{fill:#f9d677;opacity:0.4;}.b,.c{fill-rule:evenodd;}.c,.d,.e{fill:#db0e65;}.d{opacity:0.3;}.e{font-size:19px;font-family:Roboto-Medium, Roboto;font-weight:500;}.f{fill:#0a102e;}</style></defs><rect class="a" width="47.001" height="47.001"/><path class="b" d="M11.485,3v.936a2.807,2.807,0,0,0,2.807,2.807h9.357a2.807,2.807,0,0,0,2.807-2.807V3H30.2a3.743,3.743,0,0,1,3.743,3.743V36.684A3.743,3.743,0,0,1,30.2,40.426H7.743A3.743,3.743,0,0,1,4,36.684V6.743A3.743,3.743,0,0,1,7.743,3Z" transform="translate(3.485 2.614)"/><path class="c" d="M12.743,2.871a1.871,1.871,0,0,1,3.743,0h2.807a.936.936,0,0,1,.936.936V5.678a.936.936,0,0,1-.936.936H9.936A.936.936,0,0,1,9,5.678V3.807a.936.936,0,0,1,.936-.936Z" transform="translate(7.842 0.871)"/><rect class="d" width="13.099" height="3.743" rx="1" transform="translate(18.713 16.842)"/><rect class="d" width="3.743" height="3.743" rx="1" transform="translate(13.099 16.842)"/><rect class="d" width="3.743" height="3.743" rx="1" transform="translate(13.099 24.327)"/><rect class="d" width="13.099" height="3.743" rx="1" transform="translate(18.713 24.327)"/><rect class="d" width="3.743" height="3.743" rx="1" transform="translate(13.099 31.812)"/><rect class="d" width="13.099" height="3.743" rx="1" transform="translate(18.713 31.812)"/><text class="e" transform="translate(51.568 42.92)"><tspan x="0" y="0">Papers</tspan></text><g transform="translate(51.555 3.974)"><path class="f" d="M560.978,1034.856a1.168,1.168,0,0,1-.375-.913l-.05-5.106q-.025-1.727-.025-4.3v-1.477a1.169,1.169,0,0,1,.35-.9,1.207,1.207,0,0,1,.851-.325,1.347,1.347,0,0,1,.914.338,1.179,1.179,0,0,1,.388.939v.751a2.335,2.335,0,0,1,1.026-1.026,4.246,4.246,0,0,1,2.252-.626,2.794,2.794,0,0,1,1.426.3,1.15,1.15,0,0,1,.5,1.076,1.217,1.217,0,0,1-.3.839,1.111,1.111,0,0,1-.876.338,5.259,5.259,0,0,0-2.9.576,3.438,3.438,0,0,0-.788.726,1.343,1.343,0,0,0-.338.826l.05,3.128.025,3.929a1.167,1.167,0,0,1-.375.913,1.3,1.3,0,0,1-1.752,0Z" transform="translate(-493.682 -1017.106)"/><path class="f" d="M324.217,1033.089a6.729,6.729,0,0,1-.539-2.7c0-.036,0-.072,0-.108a10.02,10.02,0,0,0-.669-4.111,6.593,6.593,0,0,0-2.783-2.973q-.165-.09-.335-.169a6.365,6.365,0,0,0-.818-.316,6.787,6.787,0,0,0-5.2.576c-1.9,1.029-2.828,3.035-3.97,4.759a13.255,13.255,0,0,1-4.637,4.494,6.35,6.35,0,0,1-.6.293,8.3,8.3,0,0,1-1.782.5,7.586,7.586,0,0,1-1.548.043,5.523,5.523,0,0,1-1.2-.329,4.311,4.311,0,0,1-2.582-3.388,4.372,4.372,0,0,1,6.716-4.284,2.787,2.787,0,0,1,.49.371,8.5,8.5,0,0,1,.731.822c.064.1.139.105-.236.105h-3.131a1.154,1.154,0,0,0-.791.327,1.119,1.119,0,0,0,.791,1.91h1.6c.37,0,.738-.013,1.107-.007q.665.009,1.331.008a2.3,2.3,0,0,0,1.659-.394c.938-.856.228-2.246-.376-3.07a7.375,7.375,0,0,0-3.158-2.483l-.041-.016a6.53,6.53,0,0,0-4.593-.086,6.606,6.606,0,0,0-3.277,9.773,6.88,6.88,0,0,0,6.179,2.966c4.536-.3,7.686-3.768,9.882-7.41a7.155,7.155,0,0,1,2.44-2.954,4.807,4.807,0,0,1,3.778-.288,4.183,4.183,0,0,1,1.173.662,4.523,4.523,0,0,1,.62,6.2,4.412,4.412,0,0,1-4.711,1.459,4.713,4.713,0,0,1-1.836-1.108c-.5-.464-.978-1.25-1.778-.974a1.12,1.12,0,0,0-.584,1.256,2.278,2.278,0,0,0,.767,1.077,6.945,6.945,0,0,0,1.205.975,6.574,6.574,0,0,0,5.878.622,4.859,4.859,0,0,0,2.578-1.829,6.983,6.983,0,0,0,.556,1.374c.349.612.5.837.873.963a1.16,1.16,0,0,0,1.459-.8C324.974,1034.14,324.461,1033.687,324.217,1033.089ZM305.59,1026.5l-.106-.137C305.525,1026.418,305.563,1026.463,305.59,1026.5Z" transform="translate(-287.98 -1017.573)"/><path class="f" d="M507.573,1031.155a1,1,0,0,0-1.348-.161c-.409.3-.618.638-1.27,1.113a4.11,4.11,0,0,1-1.728.745,6.405,6.405,0,0,1-1.429.055,5.571,5.571,0,0,1-1.212-.332,4.354,4.354,0,0,1-2.608-3.423,4.417,4.417,0,0,1,6.784-4.328,2.825,2.825,0,0,1,.5.375,8.535,8.535,0,0,1,.738.83c.065.106.14.106-.239.106h-3.162a1.166,1.166,0,0,0-.8.331,1.13,1.13,0,0,0,.8,1.929h1.619c.374,0,.745-.013,1.118-.008q.672.009,1.344.008c.611,0,1.431.213,1.927-.28.659-.655.129-1.7-.2-2.375a7.227,7.227,0,0,0-1.465-2.041,5.832,5.832,0,0,0-2.433-1.47l-.029-.009-.151-.048a6.524,6.524,0,0,0-3.8-.053,6.433,6.433,0,0,0-1.811.839,7.6,7.6,0,0,0-1.835,1.816,7.137,7.137,0,0,0-1.021,2.4,6.526,6.526,0,0,0-.028,2.664,4.884,4.884,0,0,0,.275,1.01,6.74,6.74,0,0,0,5.4,4.176,6.662,6.662,0,0,0,5.063-1.5q.16-.135.313-.278S508.252,1032.144,507.573,1031.155Zm-1.471-5.2-.107-.139C506.036,1025.873,506.075,1025.92,506.1,1025.959Z" transform="translate(-443.406 -1017.13)"/><path class="f" d="M442.275,1018.729a1.037,1.037,0,0,1-.429-.754c.043.215-.97.564-1.126.624a6.578,6.578,0,0,1-8.35-3.069,6.68,6.68,0,0,1,.3-6.659,6.528,6.528,0,0,1,1.36-1.541,6.745,6.745,0,0,1,5.425-1.384,9.349,9.349,0,0,1,2.271.889l-.15-4.524a1.249,1.249,0,0,1,.363-.9,1.174,1.174,0,0,1,.876-.375,1.237,1.237,0,0,1,.889.363,1.16,1.16,0,0,1,.375.863q.175,11.412.175,15.442a1.239,1.239,0,0,1-1.251,1.251A1.246,1.246,0,0,1,442.275,1018.729Zm-1.917-2.577.051-.031a3.1,3.1,0,0,0,1.315-1.546q0-3.178-.05-5.055a.051.051,0,0,1-.05-.025c-.69-1.5-2.96-1.823-4.445-1.376a4.579,4.579,0,0,0-2.951,3.793,4.408,4.408,0,0,0,.81,3.073A4.262,4.262,0,0,0,440.358,1016.151Z" transform="translate(-393.699 -1000.977)"/><path class="f" d="M264.053,1018.818a1.249,1.249,0,0,1-.825-.362,1.2,1.2,0,0,1-.375-.838,1.143,1.143,0,0,1-.025-.225q-.025-1.425-.125-6.723t-.1-8.647a1.25,1.25,0,1,1,2.5,0q0,2.525.037,4.849t.1,5.11q.062,2.787.063,4.361c.866.017-.424.008,1.367-.025s1.45-.041,2.384-.025a1.147,1.147,0,0,1,.875.375,1.273,1.273,0,0,1,.35.9,1.146,1.146,0,0,1-.375.875,1.272,1.272,0,0,1-.9.35c-.9-.016-.747,0-2.946.05A10.622,10.622,0,0,1,264.053,1018.818Z" transform="translate(-262.604 -1000.775)"/></g><g transform="translate(51.555 3.974)"><path class="f" d="M560.978,1034.856a1.168,1.168,0,0,1-.375-.913l-.05-5.106q-.025-1.727-.025-4.3v-1.477a1.169,1.169,0,0,1,.35-.9,1.207,1.207,0,0,1,.851-.325,1.347,1.347,0,0,1,.914.338,1.179,1.179,0,0,1,.388.939v.751a2.335,2.335,0,0,1,1.026-1.026,4.246,4.246,0,0,1,2.252-.626,2.794,2.794,0,0,1,1.426.3,1.15,1.15,0,0,1,.5,1.076,1.217,1.217,0,0,1-.3.839,1.111,1.111,0,0,1-.876.338,5.259,5.259,0,0,0-2.9.576,3.438,3.438,0,0,0-.788.726,1.343,1.343,0,0,0-.338.826l.05,3.128.025,3.929a1.167,1.167,0,0,1-.375.913,1.3,1.3,0,0,1-1.752,0Z" transform="translate(-493.682 -1017.106)"/><path class="f" d="M324.217,1033.089a6.729,6.729,0,0,1-.539-2.7c0-.036,0-.072,0-.108a10.02,10.02,0,0,0-.669-4.111,6.593,6.593,0,0,0-2.783-2.973q-.165-.09-.335-.169a6.365,6.365,0,0,0-.818-.316,6.787,6.787,0,0,0-5.2.576c-1.9,1.029-2.828,3.035-3.97,4.759a13.255,13.255,0,0,1-4.637,4.494,6.35,6.35,0,0,1-.6.293,8.3,8.3,0,0,1-1.782.5,7.586,7.586,0,0,1-1.548.043,5.523,5.523,0,0,1-1.2-.329,4.311,4.311,0,0,1-2.582-3.388,4.372,4.372,0,0,1,6.716-4.284,2.787,2.787,0,0,1,.49.371,8.5,8.5,0,0,1,.731.822c.064.1.139.105-.236.105h-3.131a1.154,1.154,0,0,0-.791.327,1.119,1.119,0,0,0,.791,1.91h1.6c.37,0,.738-.013,1.107-.007q.665.009,1.331.008a2.3,2.3,0,0,0,1.659-.394c.938-.856.228-2.246-.376-3.07a7.375,7.375,0,0,0-3.158-2.483l-.041-.016a6.53,6.53,0,0,0-4.593-.086,6.606,6.606,0,0,0-3.277,9.773,6.88,6.88,0,0,0,6.179,2.966c4.536-.3,7.686-3.768,9.882-7.41a7.155,7.155,0,0,1,2.44-2.954,4.807,4.807,0,0,1,3.778-.288,4.183,4.183,0,0,1,1.173.662,4.523,4.523,0,0,1,.62,6.2,4.412,4.412,0,0,1-4.711,1.459,4.713,4.713,0,0,1-1.836-1.108c-.5-.464-.978-1.25-1.778-.974a1.12,1.12,0,0,0-.584,1.256,2.278,2.278,0,0,0,.767,1.077,6.945,6.945,0,0,0,1.205.975,6.574,6.574,0,0,0,5.878.622,4.859,4.859,0,0,0,2.578-1.829,6.983,6.983,0,0,0,.556,1.374c.349.612.5.837.873.963a1.16,1.16,0,0,0,1.459-.8C324.974,1034.14,324.461,1033.687,324.217,1033.089ZM305.59,1026.5l-.106-.137C305.525,1026.418,305.563,1026.463,305.59,1026.5Z" transform="translate(-287.98 -1017.573)"/><path class="f" d="M507.573,1031.155a1,1,0,0,0-1.348-.161c-.409.3-.618.638-1.27,1.113a4.11,4.11,0,0,1-1.728.745,6.405,6.405,0,0,1-1.429.055,5.571,5.571,0,0,1-1.212-.332,4.354,4.354,0,0,1-2.608-3.423,4.417,4.417,0,0,1,6.784-4.328,2.825,2.825,0,0,1,.5.375,8.535,8.535,0,0,1,.738.83c.065.106.14.106-.239.106h-3.162a1.166,1.166,0,0,0-.8.331,1.13,1.13,0,0,0,.8,1.929h1.619c.374,0,.745-.013,1.118-.008q.672.009,1.344.008c.611,0,1.431.213,1.927-.28.659-.655.129-1.7-.2-2.375a7.227,7.227,0,0,0-1.465-2.041,5.832,5.832,0,0,0-2.433-1.47l-.029-.009-.151-.048a6.524,6.524,0,0,0-3.8-.053,6.433,6.433,0,0,0-1.811.839,7.6,7.6,0,0,0-1.835,1.816,7.137,7.137,0,0,0-1.021,2.4,6.526,6.526,0,0,0-.028,2.664,4.884,4.884,0,0,0,.275,1.01,6.74,6.74,0,0,0,5.4,4.176,6.662,6.662,0,0,0,5.063-1.5q.16-.135.313-.278S508.252,1032.144,507.573,1031.155Zm-1.471-5.2-.107-.139C506.036,1025.873,506.075,1025.92,506.1,1025.959Z" transform="translate(-443.406 -1017.13)"/><path class="f" d="M442.275,1018.729a1.037,1.037,0,0,1-.429-.754c.043.215-.97.564-1.126.624a6.578,6.578,0,0,1-8.35-3.069,6.68,6.68,0,0,1,.3-6.659,6.528,6.528,0,0,1,1.36-1.541,6.745,6.745,0,0,1,5.425-1.384,9.349,9.349,0,0,1,2.271.889l-.15-4.524a1.249,1.249,0,0,1,.363-.9,1.174,1.174,0,0,1,.876-.375,1.237,1.237,0,0,1,.889.363,1.16,1.16,0,0,1,.375.863q.175,11.412.175,15.442a1.239,1.239,0,0,1-1.251,1.251A1.246,1.246,0,0,1,442.275,1018.729Zm-1.917-2.577.051-.031a3.1,3.1,0,0,0,1.315-1.546q0-3.178-.05-5.055a.051.051,0,0,1-.05-.025c-.69-1.5-2.96-1.823-4.445-1.376a4.579,4.579,0,0,0-2.951,3.793,4.408,4.408,0,0,0,.81,3.073A4.262,4.262,0,0,0,440.358,1016.151Z" transform="translate(-393.699 -1000.977)"/><path class="f" d="M264.053,1018.818a1.249,1.249,0,0,1-.825-.362,1.2,1.2,0,0,1-.375-.838,1.143,1.143,0,0,1-.025-.225q-.025-1.425-.125-6.723t-.1-8.647a1.25,1.25,0,1,1,2.5,0q0,2.525.037,4.849t.1,5.11q.062,2.787.063,4.361c.866.017-.424.008,1.367-.025s1.45-.041,2.384-.025a1.147,1.147,0,0,1,.875.375,1.273,1.273,0,0,1,.35.9,1.146,1.146,0,0,1-.375.875,1.272,1.272,0,0,1-.9.35c-.9-.016-.747,0-2.946.05A10.622,10.622,0,0,1,264.053,1018.818Z" transform="translate(-262.604 -1000.775)"/></g></svg>