<svg xmlns="http://www.w3.org/2000/svg" width="25.445" height="30.237" viewBox="0 0 25.445 30.237"><g transform="translate(-10 -1.768)"><path d="M24.449,8.768,17.181,1.5V6.4a12.765,12.765,0,0,0,0,25.333V28.511a9.572,9.572,0,0,1,0-18.88v6.246Zm7,8.705a12.629,12.629,0,0,0-2.588-6.214l-2.268,2.268a9.274,9.274,0,0,1,1.629,3.945ZM20.376,28.495v3.227a12.657,12.657,0,0,0,6.23-2.572l-2.3-2.3A9.241,9.241,0,0,1,20.376,28.495Zm6.214-3.866,2.268,2.252a12.628,12.628,0,0,0,2.588-6.214H28.219A9.42,9.42,0,0,1,26.589,24.629Z" transform="translate(4 0.268)"/></g></svg>