<svg xmlns="http://www.w3.org/2000/svg" width="14.345" height="14.345" viewBox="0 0 14.345 14.345"><defs><style>.a{fill:#555;stroke:#545554;stroke-width:0.1px;}</style></defs><path class="a" d="M18.573,7.64,15.605,4.672a.594.594,0,0,0-.422-.172h-9.5A1.187,1.187,0,0,0,4.5,5.687V17.558a1.187,1.187,0,0,0,1.187,1.187H17.558a1.187,1.187,0,0,0,1.187-1.187v-9.5A.594.594,0,0,0,18.573,7.64ZM9.248,5.687H14V8.061H9.248ZM14,17.558H9.248V12.81H14Zm1.187,0V12.81A1.187,1.187,0,0,0,14,11.623H9.248A1.187,1.187,0,0,0,8.061,12.81v4.748H5.687V5.687H8.061V8.061A1.187,1.187,0,0,0,9.248,9.248H14a1.187,1.187,0,0,0,1.187-1.187V5.93L17.558,8.3v9.254Z" transform="translate(-4.45 -4.45)"/></svg>