<svg xmlns="http://www.w3.org/2000/svg" width="117.91" height="117.91" viewBox="0 0 117.91 117.91"><defs><style>.a{fill:none;fill-rule:evenodd;}.b,.c{fill:#db0e65;}.b{opacity:0.5;}</style></defs><path class="a" d="M0,0H117.91V117.91H0Z"/><path class="b" d="M8.656,57.224A4.913,4.913,0,1,1,1.17,50.86L42.929,1.731a4.913,4.913,0,0,1,7.007-.49L72.045,20.893a4.913,4.913,0,1,1-6.528,7.344L47.163,11.922Z" transform="translate(110.54 83.519) rotate(180)"/><path class="c" d="M8.656,57.224A4.913,4.913,0,1,1,1.17,50.86L42.929,1.731a4.913,4.913,0,0,1,7.007-.49L72.045,20.893a4.913,4.913,0,0,1-6.528,7.344L47.163,11.922Z" transform="translate(85.976 88.432) rotate(180)"/></svg>