<svg xmlns="http://www.w3.org/2000/svg" width="29.625" height="29.625" viewBox="0 0 29.625 29.625"><g transform="translate(0 -3.577)"><g transform="translate(0 0)"><g transform="translate(0 3.577)"><path d="M16.4,19.125H8.318a2.693,2.693,0,0,0-2.693,2.693V29.9a2.693,2.693,0,0,0,2.693,2.693H16.4A2.693,2.693,0,0,0,19.091,29.9v-8.08A2.693,2.693,0,0,0,16.4,19.125ZM8.318,29.9v-8.08H16.4V29.9Z" transform="translate(-5.625 -2.966)"/><path d="M23.591,27.171v2.693h8.08a2.693,2.693,0,0,0,2.693-2.693V8.318a2.693,2.693,0,0,0-2.693-2.693H12.818a2.693,2.693,0,0,0-2.693,2.693V16.4h2.693V8.318H31.671V27.171" transform="translate(-4.739 -5.625)"/></g></g></g></svg>